name precision_landing03_filtered_grf.mot
datacolumns 37
datarows 9
range 0.002500 0.006500
endheader
time	1_ground_force_vx	1_ground_force_vy	1_ground_force_vz	1_ground_force_px	1_ground_force_py	1_ground_force_pz	1_ground_torque_x	1_ground_torque_y	1_ground_torque_z	2_ground_force_vx	2_ground_force_vy	2_ground_force_vz	2_ground_force_px	2_ground_force_py	2_ground_force_pz	2_ground_torque_x	2_ground_torque_y	2_ground_torque_z	3_ground_force_vx	3_ground_force_vy	3_ground_force_vz	3_ground_force_px	3_ground_force_py	3_ground_force_pz	3_ground_torque_x	3_ground_torque_y	3_ground_torque_z	4_ground_force_vx	4_ground_force_vy	4_ground_force_vz	4_ground_force_px	4_ground_force_py	4_ground_force_pz	4_ground_torque_x	4_ground_torque_y	4_ground_torque_z
            0.002500	           -0.000000	            0.000000	            0.000000	            0.145274	            0.000000	            0.289941	            0.000000	            0.000000	           -0.000000	            0.000000	           -0.000000	           -0.000000	           -0.178967	            0.000000	            0.303654	           -0.000000	            0.000000	           -0.000000	          -56.976004	          298.147899	           63.468006	            0.381378	            1.274672	            1.883764	            1.869254	           -9.781558	           -2.082242	          117.032519	          359.816232	           -3.125714	           -0.351975	            1.267303	            1.872309	            5.617505	           17.271006	           -0.150033
            0.003000	           -0.000000	            0.000000	            0.000000	            0.145274	            0.000000	            0.289941	            0.000000	            0.000000	           -0.000000	            0.000000	           -0.000000	           -0.000000	           -0.178967	            0.000000	            0.303654	           -0.000000	            0.000000	            0.000000	          -56.698369	          298.400109	           63.328162	            0.381378	            1.274672	            1.883764	            1.858840	           -9.782963	           -2.076196	          117.158480	          359.697728	           -3.027561	           -0.351975	            1.267303	            1.872309	            5.634262	           17.298203	           -0.145598
            0.003500	           -0.000000	            0.000000	            0.000000	            0.145274	            0.000000	            0.289941	            0.000000	            0.000000	           -0.000000	            0.000000	            0.000000	           -0.000000	           -0.178967	            0.000000	            0.303654	            0.000000	           -0.000000	            0.000000	          -56.432695	          298.659253	           63.189352	            0.381383	            1.274675	            1.883767	            1.848830	           -9.784582	           -2.070190	          117.281659	          359.583353	           -2.934127	           -0.351976	            1.267307	            1.872315	            5.650612	           17.324669	           -0.141366
            0.004000	           -0.000000	            0.000000	            0.000000	            0.145274	            0.000000	            0.289941	            0.000000	            0.000000	           -0.000000	            0.000000	            0.000000	           -0.000000	           -0.178967	            0.000000	            0.303654	            0.000000	           -0.000000	            0.000000	          -56.179917	          298.925158	           63.052038	            0.381388	            1.274677	            1.883769	            1.839260	           -9.786437	           -2.064245	          117.401529	          359.473511	           -2.845824	           -0.351977	            1.267311	            1.872322	            5.666488	           17.350304	           -0.137356
            0.004500	           -0.000000	            0.000000	            0.000000	            0.145274	            0.000000	            0.289941	            0.000000	            0.000000	           -0.000000	            0.000000	            0.000000	           -0.000000	           -0.178967	            0.000000	            0.303654	            0.000000	           -0.000000	            0.000000	          -55.940867	          299.197644	           62.916660	            0.381393	            1.274680	            1.883771	            1.830162	           -9.788551	           -2.058382	          117.517595	          359.368578	           -2.763025	           -0.351977	            1.267315	            1.872329	            5.681828	           17.375019	           -0.133589
            0.005000	           -0.000000	            0.000000	            0.000000	            0.145274	            0.000000	            0.289941	            0.000000	            0.000000	           -0.000000	            0.000000	            0.000000	            0.000000	           -0.178967	            0.000000	            0.303654	            0.000000	           -0.000000	            0.000000	          -55.716267	          299.476524	           62.783640	            0.381399	            1.274682	            1.883773	            1.821562	           -9.790947	           -2.052619	          117.629397	          359.268892	           -2.686053	           -0.351978	            1.267319	            1.872335	            5.696575	           17.398732	           -0.130081
            0.005500	           -0.000000	            0.000000	            0.000000	            0.145274	            0.000000	            0.289941	            0.000000	            0.000000	           -0.000000	            0.000000	            0.000000	            0.000000	           -0.178967	            0.000000	            0.303654	            0.000000	           -0.000000	            0.000000	          -55.507274	          299.761625	           62.652783	            0.381403	            1.274684	            1.883776	            1.813503	           -9.793647	           -2.046957	          117.735365	          359.175133	           -2.615198	           -0.351978	            1.267322	            1.872341	            5.710622	           17.421388	           -0.126847
            0.006000	           -0.000000	            0.000000	            0.000000	            0.145274	            0.000000	            0.289941	            0.000000	            0.000000	           -0.000000	            0.000000	            0.000000	            0.000000	           -0.178967	            0.000000	            0.303654	            0.000000	           -0.000000	            0.000000	          -55.313752	          300.052722	           62.525126	            0.381408	            1.274687	            1.883778	            1.805985	           -9.796673	           -2.041435	          117.836265	          359.087193	           -2.550667	           -0.351979	            1.267326	            1.872347	            5.723978	           17.442907	           -0.123900
            0.006500	           -0.000000	            0.000000	            0.000000	            0.145274	            0.000000	            0.289941	            0.000000	            0.000000	           -0.000000	            0.000000	            0.000000	            0.000000	           -0.178967	            0.000000	            0.303654	            0.000000	           -0.000000	            0.000000	          -55.136075	          300.349610	           62.401015	            0.381413	            1.274689	            1.883780	            1.799024	           -9.800048	           -2.036070	          117.931760	          359.005303	           -2.492630	           -0.351979	            1.267329	            1.872354	            5.736601	           17.463238	           -0.121250
